<mxfile host="app.diagrams.net" agent="Mozilla/5.0 (Windows NT 10.0; Win64; x64) AppleWebKit/537.36 (KHTML, like Gecko) Chrome/138.0.0.0 Safari/537.36" version="28.0.7">
  <diagram name="Page-1" id="H88ue-2PD3LkTTqjqE9H">
    <mxGraphModel dx="786" dy="497" grid="1" gridSize="10" guides="1" tooltips="1" connect="1" arrows="1" fold="1" page="1" pageScale="1" pageWidth="827" pageHeight="1169" math="0" shadow="0">
      <root>
        <mxCell id="0" />
        <mxCell id="1" parent="0" />
        <mxCell id="tXCBnbIx9EtT73KbMcLT-1" value="&lt;font style=&quot;font-size: 19px;&quot;&gt;&lt;b&gt;Start&lt;/b&gt;&lt;/font&gt;" style="ellipse;whiteSpace=wrap;html=1;fillColor=#6a00ff;fontColor=#ffffff;strokeColor=#3700CC;" vertex="1" parent="1">
          <mxGeometry x="260" y="12" width="240" height="60" as="geometry" />
        </mxCell>
        <mxCell id="tXCBnbIx9EtT73KbMcLT-2" value="&lt;b&gt;&lt;font style=&quot;font-size: 13px;&quot;&gt;New User?&lt;/font&gt;&lt;/b&gt;" style="rhombus;whiteSpace=wrap;html=1;fillColor=#0050ef;fontColor=#ffffff;strokeColor=#001DBC;" vertex="1" parent="1">
          <mxGeometry x="315" y="110" width="130" height="100" as="geometry" />
        </mxCell>
        <mxCell id="tXCBnbIx9EtT73KbMcLT-3" value="&lt;b&gt;&lt;font style=&quot;font-size: 14px;&quot;&gt;Recognize the face&lt;/font&gt;&lt;/b&gt;" style="shape=parallelogram;perimeter=parallelogramPerimeter;whiteSpace=wrap;html=1;fixedSize=1;fillColor=#1ba1e2;fontColor=#ffffff;strokeColor=#006EAF;" vertex="1" parent="1">
          <mxGeometry x="300" y="270" width="170" height="60" as="geometry" />
        </mxCell>
        <mxCell id="tXCBnbIx9EtT73KbMcLT-4" value="&lt;b&gt;&lt;font style=&quot;font-size: 13px;&quot;&gt;Face Recognized&lt;/font&gt;&lt;/b&gt;" style="rhombus;whiteSpace=wrap;html=1;fillColor=#0050ef;fontColor=#ffffff;strokeColor=#001DBC;" vertex="1" parent="1">
          <mxGeometry x="315" y="370" width="135" height="110" as="geometry" />
        </mxCell>
        <mxCell id="tXCBnbIx9EtT73KbMcLT-5" value="&lt;b&gt;&lt;font style=&quot;font-size: 13px;&quot;&gt;Stored in CSV file with registration number and date time of entry&lt;/font&gt;&lt;/b&gt;" style="shape=parallelogram;perimeter=parallelogramPerimeter;whiteSpace=wrap;html=1;fixedSize=1;fillColor=#1ba1e2;fontColor=#ffffff;strokeColor=#006EAF;" vertex="1" parent="1">
          <mxGeometry x="280" y="520" width="210" height="70" as="geometry" />
        </mxCell>
        <mxCell id="tXCBnbIx9EtT73KbMcLT-7" value="&lt;span style=&quot;font-size: 19px;&quot;&gt;&lt;b&gt;end&lt;/b&gt;&lt;/span&gt;" style="ellipse;whiteSpace=wrap;html=1;fillColor=#6a00ff;fontColor=#ffffff;strokeColor=#3700CC;" vertex="1" parent="1">
          <mxGeometry x="265" y="650" width="240" height="60" as="geometry" />
        </mxCell>
        <mxCell id="tXCBnbIx9EtT73KbMcLT-9" value="" style="endArrow=classic;html=1;rounded=0;fillColor=#fa6800;strokeColor=#C73500;" edge="1" parent="1">
          <mxGeometry width="50" height="50" relative="1" as="geometry">
            <mxPoint x="379.5" y="72" as="sourcePoint" />
            <mxPoint x="380" y="100" as="targetPoint" />
          </mxGeometry>
        </mxCell>
        <mxCell id="tXCBnbIx9EtT73KbMcLT-10" value="" style="endArrow=classic;html=1;rounded=0;fillColor=#fa6800;strokeColor=#C73500;" edge="1" parent="1">
          <mxGeometry width="50" height="50" relative="1" as="geometry">
            <mxPoint x="380" y="210" as="sourcePoint" />
            <mxPoint x="381" y="260" as="targetPoint" />
          </mxGeometry>
        </mxCell>
        <mxCell id="tXCBnbIx9EtT73KbMcLT-11" value="" style="endArrow=classic;html=1;rounded=0;fillColor=#fa6800;strokeColor=#C73500;" edge="1" parent="1">
          <mxGeometry width="50" height="50" relative="1" as="geometry">
            <mxPoint x="380" y="340" as="sourcePoint" />
            <mxPoint x="380.5" y="368" as="targetPoint" />
          </mxGeometry>
        </mxCell>
        <mxCell id="tXCBnbIx9EtT73KbMcLT-13" value="" style="endArrow=classic;html=1;rounded=0;fillColor=#fa6800;strokeColor=#C73500;" edge="1" parent="1">
          <mxGeometry width="50" height="50" relative="1" as="geometry">
            <mxPoint x="379.5" y="480" as="sourcePoint" />
            <mxPoint x="380" y="520" as="targetPoint" />
          </mxGeometry>
        </mxCell>
        <mxCell id="tXCBnbIx9EtT73KbMcLT-14" value="" style="endArrow=classic;html=1;rounded=0;fillColor=#fa6800;strokeColor=#C73500;" edge="1" parent="1">
          <mxGeometry width="50" height="50" relative="1" as="geometry">
            <mxPoint x="380" y="600" as="sourcePoint" />
            <mxPoint x="380" y="640" as="targetPoint" />
          </mxGeometry>
        </mxCell>
        <mxCell id="tXCBnbIx9EtT73KbMcLT-15" value="&lt;b&gt;Give your Photograph&lt;/b&gt;" style="rounded=0;whiteSpace=wrap;html=1;fillColor=#1ba1e2;fontColor=#ffffff;strokeColor=#006EAF;" vertex="1" parent="1">
          <mxGeometry x="560" y="130" width="180" height="50" as="geometry" />
        </mxCell>
        <mxCell id="tXCBnbIx9EtT73KbMcLT-18" value="Store the face data in the folder of your name" style="rounded=0;whiteSpace=wrap;html=1;fillColor=#0050ef;fontColor=#ffffff;strokeColor=#001DBC;" vertex="1" parent="1">
          <mxGeometry x="570" y="275" width="180" height="50" as="geometry" />
        </mxCell>
        <mxCell id="tXCBnbIx9EtT73KbMcLT-19" value="" style="endArrow=classic;html=1;rounded=0;fillColor=#fa6800;strokeColor=#C73500;" edge="1" parent="1">
          <mxGeometry width="50" height="50" relative="1" as="geometry">
            <mxPoint x="450" y="159.5" as="sourcePoint" />
            <mxPoint x="550" y="159.5" as="targetPoint" />
          </mxGeometry>
        </mxCell>
        <mxCell id="tXCBnbIx9EtT73KbMcLT-20" value="" style="endArrow=classic;html=1;rounded=0;fillColor=#fa6800;strokeColor=#C73500;" edge="1" parent="1">
          <mxGeometry width="50" height="50" relative="1" as="geometry">
            <mxPoint x="570" y="300" as="sourcePoint" />
            <mxPoint x="470" y="299.5" as="targetPoint" />
          </mxGeometry>
        </mxCell>
        <mxCell id="tXCBnbIx9EtT73KbMcLT-21" value="" style="endArrow=none;html=1;rounded=0;fillColor=#fa6800;strokeColor=#C73500;" edge="1" parent="1">
          <mxGeometry width="50" height="50" relative="1" as="geometry">
            <mxPoint x="649.5" y="270" as="sourcePoint" />
            <mxPoint x="649.5" y="190" as="targetPoint" />
          </mxGeometry>
        </mxCell>
        <mxCell id="tXCBnbIx9EtT73KbMcLT-23" value="" style="endArrow=none;html=1;rounded=0;fillColor=#fa6800;strokeColor=#C73500;" edge="1" parent="1">
          <mxGeometry width="50" height="50" relative="1" as="geometry">
            <mxPoint x="460" y="424.5" as="sourcePoint" />
            <mxPoint x="790" y="425" as="targetPoint" />
          </mxGeometry>
        </mxCell>
        <mxCell id="tXCBnbIx9EtT73KbMcLT-24" value="" style="endArrow=none;html=1;rounded=0;fillColor=#fa6800;strokeColor=#C73500;" edge="1" parent="1">
          <mxGeometry width="50" height="50" relative="1" as="geometry">
            <mxPoint x="790" y="430" as="sourcePoint" />
            <mxPoint x="790" y="100" as="targetPoint" />
          </mxGeometry>
        </mxCell>
        <mxCell id="tXCBnbIx9EtT73KbMcLT-26" value="" style="endArrow=none;html=1;rounded=0;fillColor=#fa6800;strokeColor=#C73500;" edge="1" parent="1">
          <mxGeometry width="50" height="50" relative="1" as="geometry">
            <mxPoint x="640" y="100" as="sourcePoint" />
            <mxPoint x="790" y="100" as="targetPoint" />
          </mxGeometry>
        </mxCell>
        <mxCell id="tXCBnbIx9EtT73KbMcLT-27" value="" style="endArrow=classic;html=1;rounded=0;" edge="1" parent="1">
          <mxGeometry width="50" height="50" relative="1" as="geometry">
            <mxPoint x="640" y="100" as="sourcePoint" />
            <mxPoint x="640" y="130" as="targetPoint" />
          </mxGeometry>
        </mxCell>
      </root>
    </mxGraphModel>
  </diagram>
</mxfile>
